<svg width="14" height="15" viewBox="0 0 14 15" fill="none" xmlns="http://www.w3.org/2000/svg">
<path fill-rule="evenodd" clip-rule="evenodd" d="M0.599609 7.10078C0.599609 8.64718 1.85321 9.90078 3.39961 9.90078H6.19961V11.9694L5.16529 10.9351C4.85288 10.6227 4.34634 10.6227 4.03392 10.9351C3.7215 11.2475 3.7215 11.754 4.03392 12.0665L6.43392 14.4665C6.74634 14.7789 7.25288 14.7789 7.56529 14.4665L9.96529 12.0665C10.2777 11.754 10.2777 11.2475 9.96529 10.9351C9.65287 10.6227 9.14634 10.6227 8.83392 10.9351L7.79961 11.9694V9.90078H9.79961C11.7878 9.90078 13.3996 8.28901 13.3996 6.30078C13.3996 4.31256 11.7878 2.70078 9.79961 2.70078C9.63257 2.70078 9.46819 2.71216 9.3072 2.73418C8.96371 1.33708 7.70268 0.300781 6.19961 0.300781C4.4323 0.300781 2.99961 1.73347 2.99961 3.50078C2.99961 3.78256 3.03603 4.05584 3.10442 4.31616C1.69678 4.46364 0.599609 5.65408 0.599609 7.10078ZM7.79961 9.90078H6.19961V5.90078C6.19961 5.45895 6.55778 5.10078 6.99961 5.10078C7.44144 5.10078 7.79961 5.45895 7.79961 5.90078V9.90078Z" fill="#1E86FF"/>
</svg>
